<?xml version="1.0" encoding="UTF-8"?>
<svg width="18px" height="30px" viewBox="0 0 18 30" version="1.1" xmlns="http://www.w3.org/2000/svg" xmlns:xlink="http://www.w3.org/1999/xlink">
    <title>Mouse</title>
    <defs></defs>
    <g id="Page-1" stroke="none" stroke-width="1" fill="none" fill-rule="evenodd">
        <g id="Desktop-HD" transform="translate(-784.000000, -436.000000)" fill-rule="nonzero" fill="#000000">
            <g id="" transform="translate(784.000000, 436.000000)">
                <g id="Group">
                    <g transform="translate(0.030931, 0.366631)" id="Shape">
                        <path d="M10.2197015,0.297761194 C10.4740299,0.302686567 10.7270149,0.317014925 10.9795522,0.346119403 C11.5325373,0.409253731 12.0783582,0.534626866 12.6031343,0.719552239 C13.5962687,1.06970149 14.510597,1.63298507 15.2726866,2.35925373 C16.098806,3.14731343 16.7413433,4.12343284 17.1344776,5.1958209 C17.3256716,5.71746269 17.4577612,6.26059701 17.5276119,6.81179104 C17.5638806,7.09522388 17.581791,7.37955224 17.5871642,7.66522388 C17.6171642,12.4280597 17.5876119,17.1913433 17.5876119,21.9546269 C17.5862687,22.2085075 17.5750746,22.4623881 17.5491045,22.7153731 C17.49,23.3001493 17.3610448,23.8777612 17.1653731,24.4325373 C16.7955224,25.4820896 16.1874627,26.4434328 15.4007463,27.2301493 C14.6140299,28.0168657 13.6526866,28.6249254 12.6031343,28.9947761 C12.0783582,29.1797015 11.5325373,29.3050746 10.9795522,29.3686567 C10.7270149,29.3973134 10.4740299,29.4116418 10.2197015,29.4165672 C9.38776119,29.4219403 8.5558209,29.4174627 7.72343284,29.4174627 C7.46910448,29.4156716 7.21567164,29.4044776 6.96268657,29.3785075 C6.37791045,29.319403 5.79985075,29.1904478 5.24552239,28.9947761 C4.28059701,28.6544776 3.39,28.1135821 2.64134328,27.4164179 C1.78343284,26.6180597 1.11761194,25.6191045 0.714179104,24.5185075 C0.522985075,23.9968657 0.390895522,23.4537313 0.320597015,22.9025373 C0.284776119,22.6195522 0.266865672,22.3347761 0.261492537,22.0495522 C0.231044776,17.2862687 0.260597015,12.5229851 0.260597015,7.76014925 C0.26238806,7.47447761 0.277164179,7.18925373 0.309402985,6.90537313 C0.372537313,6.35238806 0.498358209,5.80701493 0.683283582,5.28179104 C1.05313433,4.23223881 1.66119403,3.27134328 2.44791045,2.48462687 C3.23462687,1.69746269 4.19597015,1.08985075 5.24552239,0.719552239 C5.77029851,0.534626866 6.3161194,0.409253731 6.86910448,0.346119403 C7.12119403,0.317014925 7.37462687,0.302686567 7.62850746,0.297761194 C8.49223881,0.29238806 9.35597015,0.29238806 10.2197015,0.297761194 Z M7.72656716,1.23 C7.47537313,1.23179104 7.22462687,1.24432836 6.97477612,1.27253731 C6.49164179,1.3280597 6.01432836,1.43776119 5.5558209,1.59940299 C4.68671642,1.90567164 3.88656716,2.39865672 3.21985075,3.03447761 C2.49671642,3.72402985 1.9338806,4.57835821 1.59,5.51686567 C1.42298507,5.97313433 1.30746269,6.44776119 1.2461194,6.92955224 C1.21477612,7.17761194 1.19910448,7.42701493 1.1941791,7.67686567 C1.16373134,12.4638806 1.16373134,17.2508955 1.1941791,22.0374627 C1.19910448,22.2877612 1.21477612,22.5367164 1.2461194,22.7847761 C1.30746269,23.2665672 1.42298507,23.7416418 1.59,24.1974627 C1.94283582,25.160597 2.52626866,26.0350746 3.27671642,26.7335821 C3.93179104,27.3434328 4.71134328,27.8176119 5.5558209,28.1149254 C6.01432836,28.2765672 6.49164179,28.3862687 6.97477612,28.441791 C7.19597015,28.4673134 7.4180597,28.4798507 7.64059701,28.4838806 C8.49626866,28.4892537 9.35238806,28.4892537 10.2080597,28.4838806 C10.430597,28.4798507 10.6522388,28.4673134 10.8734328,28.441791 C11.3570149,28.3862687 11.8338806,28.2765672 12.2928358,28.1149254 C13.1373134,27.8176119 13.9164179,27.3434328 14.5714925,26.7335821 C15.3223881,26.0350746 15.9053731,25.160597 16.2586567,24.1974627 C16.4256716,23.7416418 16.541194,23.2665672 16.6025373,22.7847761 C16.6338806,22.5367164 16.6495522,22.2877612 16.6544776,22.0374627 C16.6849254,17.2508955 16.6849254,12.4638806 16.6544776,7.67686567 C16.6495522,7.42701493 16.6338806,7.17761194 16.6025373,6.92955224 C16.541194,6.44776119 16.4256716,5.97313433 16.2586567,5.51686567 C15.9147761,4.57835821 15.3519403,3.72402985 14.628806,3.03447761 C13.9620896,2.39865672 13.1619403,1.90567164 12.2928358,1.59940299 C11.8338806,1.43776119 11.3570149,1.3280597 10.8734328,1.27253731 C10.6522388,1.24746269 10.430597,1.23492537 10.2080597,1.23044776 C9.38104478,1.22552239 8.55358209,1.23 7.72656716,1.23 Z"></path>
                    </g>
                    <g transform="translate(0.000000, 11.500849)" id="Shape">
                        <path d="M17.2065672,0.18358209 C17.2244776,0.186716418 17.2423881,0.188507463 17.2598507,0.192985075 C17.3126866,0.205522388 17.3632836,0.227014925 17.4085075,0.257014925 C17.4541791,0.287014925 17.4940299,0.324626866 17.5262687,0.368059701 C17.5589552,0.411492537 17.5835821,0.460746269 17.5992537,0.512686567 C17.6467164,0.67119403 17.6050746,0.846716418 17.491791,0.966716418 C17.4295522,1.03253731 17.3480597,1.07955224 17.2598507,1.10059701 C17.2128358,1.11179104 17.2002985,1.11044776 17.1523881,1.11313433 L0.758059701,1.11313433 C0.710149254,1.11044776 0.69761194,1.11179104 0.650597015,1.10059701 C0.56238806,1.07955224 0.480895522,1.03253731 0.418656716,0.966716418 C0.381492537,0.927313433 0.351492537,0.88119403 0.33,0.831492537 C0.308507463,0.781343284 0.295522388,0.728059701 0.29238806,0.673880597 C0.281641791,0.489850746 0.384179104,0.312537313 0.548955224,0.229701493 C0.597313433,0.205522388 0.650149254,0.189850746 0.703880597,0.18358209 C0.721791045,0.181343284 0.740149254,0.181343284 0.758059701,0.180447761 L17.1523881,0.180447761 C17.1702985,0.181343284 17.188209,0.182238806 17.2065672,0.18358209 Z"></path>
                    </g>
                    <path d="M9.02149254,0.668507463 C9.0658209,0.677014925 9.10746269,0.687313433 9.14910448,0.706119403 C9.27089552,0.761641791 9.36492537,0.87 9.40253731,0.998955224 C9.41552239,1.04238806 9.41955224,1.08537313 9.42179104,1.13014925 L9.42179104,12.1473134 C9.41955224,12.1867164 9.42089552,12.1970149 9.41328358,12.2359701 C9.39358209,12.3380597 9.33940299,12.4320896 9.26059701,12.5001493 C9.22701493,12.5292537 9.18940299,12.5534328 9.14910448,12.571791 C8.98477612,12.6470149 8.78641791,12.6183582 8.64985075,12.5001493 C8.60507463,12.461194 8.56791045,12.4137313 8.54059701,12.3613433 C8.51373134,12.3085075 8.49671642,12.2507463 8.49089552,12.1916418 C8.48955224,12.1773134 8.48955224,12.1620896 8.48865672,12.1473134 L8.48865672,1.13014925 C8.48955224,1.11537313 8.48955224,1.10059701 8.49089552,1.0858209 C8.49492537,1.0419403 8.50567164,0.998059701 8.52223881,0.956865672 C8.57776119,0.818059701 8.7,0.71238806 8.84507463,0.677014925 C8.88940299,0.666268657 8.93238806,0.664477612 8.97761194,0.664477612 C8.9919403,0.665820896 9.00671642,0.667164179 9.02149254,0.668507463 Z" id="Shape"></path>
                </g>
            </g>
        </g>
    </g>
</svg>
